<svg viewBox="0 0 52 52" xmlns="http://www.w3.org/2000/svg"><path d="M41.425.482a3.91 3.91 0 0 1 4.69 2.931l2.2 9.527-45.73 10.557L.388 13.97a3.911 3.911 0 0 1 2.93-4.69ZM3.172 17.341l.88 3.81 7.327-11.725-3.81.88Zm6.596 2.491 3.81-.88 7.328-11.726-3.811.88zm9.526-2.2 3.811-.88 7.327-11.725-3.81.88zm9.527-2.199 3.81-.88L39.96 2.828l-3.81.88zm9.527-2.2 3.81-.879 2.931-4.69-.88-3.81zm7.259 35.685H6.497a3.91 3.91 0 0 1-3.911-3.911v-21.51h46.93l.001 21.51a3.91 3.91 0 0 1-3.91 3.91zM16.274 25.453l-7.821 7.821h3.91l7.822-7.821zm9.778 0-7.822 7.821h3.91l7.822-7.821zm9.777 0-7.822 7.821h3.91l7.823-7.821zm9.777 0-7.822 7.821h3.911l5.856-5.855.01-1.966zm-39.109 0-1.955 1.955v3.91l5.866-5.865z" style="stroke-width:.213211"/></svg>