<svg xmlns="http://www.w3.org/2000/svg" viewBox="0 0 512 512"><path d="M437.019 74.981C388.667 26.628 324.379 0 256 0S123.333 26.628 74.982 74.981C26.628 123.333 0 187.621 0 256s26.628 132.667 74.982 181.019C123.333 485.372 187.621 512 256 512s132.667-26.628 181.019-74.981S512 324.379 512 256s-26.628-132.667-74.981-181.019zM256 495.832C123.756 495.832 16.168 388.244 16.168 256S123.756 16.168 256 16.168 495.832 123.756 495.832 256 388.244 495.832 256 495.832z"/><path d="M349.613 237.646c-.942-.363-1.956-.509-2.966-.509H223.663c-4.465 0-8.084 3.62-8.084 8.084v53.895c0 4.465 3.62 8.084 8.084 8.084h51.182c-16.49 23.528-43.275 37.698-72.653 37.726h-.083c-47.216 0-87.072-38.317-88.864-85.45-.693-18.237 4.052-35.738 13.529-50.748 2.003-3.173 1.558-7.305-1.096-9.958l-.115-.115c-3.616-3.616-9.684-2.99-12.421 1.331-11.253 17.77-16.873 38.507-16.052 60.105 1.033 27.187 12.492 52.619 32.267 71.61 19.739 18.957 45.571 29.394 72.749 29.394h.101c40.138-.039 76.178-22.408 94.057-58.381 1.622-3.261.898-7.31-2.062-9.816-1.491-1.262-3.432-1.866-5.385-1.866h-57.069v-37.726h106.934l-.002 7.677c-.026 74.458-59.935 136.278-133.547 137.808-1.007.022-2.015.031-3.028.031-77.738 0-141.802-63.222-142.809-140.931-.495-38.215 14.087-74.386 41.06-101.848 26.954-27.445 62.825-42.666 101.006-42.86.247-.001.488-.002.735-.002 32.628 0 63.994 11.059 89.28 31.337l-26.9 26.901c-17.995-13.275-39.869-20.511-62.371-20.511-21.674 0-42.25 6.472-59.628 18.511-4.102 2.842-4.606 8.723-1.077 12.252l.114.114c2.748 2.748 7.057 3.109 10.253.9 14.68-10.144 32.042-15.608 50.338-15.608 21.164 0 41.669 7.565 57.74 21.3 3.209 2.742 7.984 2.554 10.97-.429L309 149.761c2.299-2.3 3.065-5.838 1.667-9.032-.466-1.064-1.201-1.993-2.063-2.771-29.269-26.426-67.057-40.947-106.507-40.947-.273 0-.547.001-.818.002-42.523.217-82.462 17.157-112.46 47.699-30.016 30.562-46.242 70.83-45.691 113.387.544 42.027 17.323 81.451 47.245 111.01 29.949 29.587 69.629 45.881 111.731 45.881 1.124 0 2.246-.012 3.364-.034 40.182-.835 77.802-17.334 105.928-46.457 28.004-28.995 43.435-67.177 43.45-107.51l.005-15.764c.003-3.258-1.962-6.314-5.238-7.579z"/><path d="M450.021 150.905h-24.253v-24.253c0-4.465-3.619-8.084-8.084-8.084h-43.116c-4.466 0-8.084 3.62-8.084 8.084v24.253h-24.253c-4.466 0-8.084 3.62-8.084 8.084v43.116c0 4.465 3.619 8.084 8.084 8.084h24.253v24.253c0 4.465 3.619 8.084 8.084 8.084h43.116c4.466 0 8.084-3.62 8.084-8.084v-24.253h24.253c4.466 0 8.084-3.62 8.084-8.084v-43.116c0-4.464-3.618-8.084-8.084-8.084zm-8.084 43.116h-24.253c-4.466 0-8.084 3.62-8.084 8.084v24.253h-26.947v-24.253c0-4.465-3.619-8.084-8.084-8.084h-24.253v-26.947h24.253c4.466 0 8.084-3.62 8.084-8.084v-24.253H409.6v24.253c0 4.465 3.619 8.084 8.084 8.084h24.253v26.947z"/></svg>