<svg xmlns="http://www.w3.org/2000/svg" viewBox="0 0 512 512"><path d="M437.019 74.981C388.667 26.628 324.379 0 256 0S123.333 26.628 74.981 74.981C26.628 123.333 0 187.621 0 256s26.628 132.667 74.981 181.019C123.333 485.372 187.621 512 256 512s132.667-26.628 181.019-74.981S512 324.379 512 256s-26.628-132.667-74.981-181.019zM256 495.832C123.756 495.832 16.168 388.244 16.168 256S123.756 16.168 256 16.168 495.832 123.756 495.832 256 388.244 495.832 256 495.832z"/><path d="M436.352 162.391c-2.433-2.104-5.958-2.463-8.875-1.11-4.183 1.94-8.457 3.644-12.806 5.107 4.313-5.884 7.758-12.422 10.188-19.432 1.002-2.891.503-6.176-1.569-8.427-2.593-2.814-6.723-3.406-9.963-1.56-11.815 6.733-24.558 11.306-37.931 13.618-14.958-13.729-34.201-21.24-54.643-21.24-42.313 0-77.147 32.642-80.648 74.065-8.741-1.364-25.844-6.241-29.933-7.578-29.581-10.075-56.228-27.814-77.075-51.307-1.236-1.393-2.864-2.429-4.695-2.764-3.68-.672-7.171 1.186-8.745 4.339-5.181 10.383-7.809 21.548-7.809 33.185 0 16.093 5.038 31.261 14.113 43.73-2.828-.531-5.838.462-7.812 2.89-1.135 1.396-1.703 3.168-1.77 4.966-.03.82-.057 1.643-.057 2.472 0 21.817 9.99 41.646 26.136 54.588-1.115.755-2.055 1.797-2.703 3.082-.963 1.904-1.07 4.143-.434 6.178 7.052 22.559 24.572 39.739 46.292 46.781-19.673 11.976-42.429 18.434-65.679 18.434-2.053 0-4.166-.053-6.279-.156-4.046-.185-7.675 2.639-8.371 6.744-.568 3.349 1.162 6.698 4.087 8.423 29.718 17.529 63.734 26.792 98.39 26.792 41.361 0 80.758-12.881 113.607-36.725 4.052-2.942 4.499-8.821.959-12.362l-.003-.003c-2.852-2.852-7.338-3.159-10.605-.793-29.275 21.198-65.207 33.714-103.959 33.714-21.719 0-43.162-3.968-63.255-11.61 24.303-4.268 47.275-14.808 66.409-30.712 2.312-1.922 3.529-4.962 2.947-7.911-.744-3.767-3.972-6.43-7.707-6.535-19.686-.558-37.26-11.435-46.698-28.06 4.501-.216 9.006-.832 13.44-1.841 3.382-.77 6.119-3.472 6.559-6.913.529-4.142-2.134-7.925-6.085-8.897-21.117-5.2-36.647-22.364-40.14-43.256 6.19 1.451 12.624 2.092 19.047 1.896 3.963-.119 7.317-3.109 7.792-7.166.374-3.196-1.323-6.291-4.07-7.966-17.529-10.682-27.985-29.272-27.985-49.783 0-5.014.623-9.917 1.859-14.665 21.193 20.954 46.914 36.922 75.086 46.518.258.088 28.093 8.754 38.636 8.797.688.017 3.975.162 3.98.162 3.388.137 6.673-1.919 7.953-5.326.368-.978.502-2.03.477-3.074-.011-.471-.023-.942-.023-1.416 0-35.713 29.055-64.768 64.769-64.768 17.487 0 33.878 6.872 46.158 19.348 1.777 1.807 4.282 2.697 6.793 2.349 8.227-1.141 16.256-3.025 24.037-5.632-4.142 4.544-9.025 8.437-14.502 11.504-3.692 2.067-5.258 6.558-3.518 10.415l.119.264c1.424 3.152 4.691 5.045 8.136 4.72 6.687-.638 13.282-1.739 19.753-3.291-5.725 5.904-12.02 11.267-18.849 16.051-2.228 1.561-3.509 4.147-3.416 6.865l.017.511c.019.553.04 1.107.04 1.664v.731c-.186 45.29-17.461 86.654-45.668 117.994-2.882 3.201-2.702 8.117.344 11.163 3.312 3.312 8.72 3.151 11.855-.332 31.691-35.208 49.224-80.18 49.633-127.902 14.422-10.743 26.595-23.876 36.227-39.093 2.119-3.345 1.524-7.788-1.558-10.454z"/></svg>