<svg xmlns="http://www.w3.org/2000/svg" viewBox="0 0 32 32"><path d="M25 8.509h2a1 1 0 0 0 1-1v-1a1 1 0 0 0-1-1h-2a1 1 0 0 0-1 1v1a1 1 0 0 0 1 1zm0 6h2a1 1 0 0 0 1-1v-1a1 1 0 0 0-1-1h-2a1 1 0 0 0-1 1v1a1 1 0 0 0 1 1zm0 6h2a1 1 0 0 0 1-1v-1a1 1 0 0 0-1-1h-2a1 1 0 0 0-1 1v1a1 1 0 0 0 1 1zm0 6h2a1 1 0 0 0 1-1v-1a1 1 0 0 0-1-1h-2a1 1 0 0 0-1 1v1a1 1 0 0 0 1 1zm-20-18h2a1 1 0 0 0 1-1v-1a1 1 0 0 0-1-1H5a1 1 0 0 0-1 1v1a1 1 0 0 0 1 1zm0 6h2a1 1 0 0 0 1-1v-1a1 1 0 0 0-1-1H5a1 1 0 0 0-1 1v1a1 1 0 0 0 1 1zm0 6h2a1 1 0 0 0 1-1v-1a1 1 0 0 0-1-1H5a1 1 0 0 0-1 1v1a1 1 0 0 0 1 1zm0 6h2a1 1 0 0 0 1-1v-1a1 1 0 0 0-1-1H5a1 1 0 0 0-1 1v1a1 1 0 0 0 1 1zM30 .497H2c-1.099 0-2 .9-2 2v27.006c0 1.099.9 2 2 2h28c1.099 0 2-.901 2-2V2.497c0-1.099-.901-2-2-2zm0 29.006H2V2.497h28v27.006z"/></svg>