<svg xmlns="http://www.w3.org/2000/svg" viewBox="0 0 404.021 404.021" style="enable-background:new 0 0 404.021 404.021" xml:space="preserve"><path d="M5.738 377.174h28.07c3.17 0 5.739-2.569 5.739-5.739v-37.333H93.23v37.333c0 3.17 2.57 5.739 5.739 5.739h206.083c3.17 0 5.74-2.569 5.74-5.739v-37.333h53.682v37.333c0 3.17 2.57 5.739 5.74 5.739h28.07c3.168 0 5.736-2.569 5.736-5.739V32.587c0-3.17-2.568-5.739-5.736-5.739h-28.07c-3.17 0-5.74 2.569-5.74 5.739V69.92h-53.682V32.587c0-3.17-2.57-5.739-5.74-5.739H98.969c-3.169 0-5.739 2.569-5.739 5.739V69.92H39.547V32.587c0-3.17-2.569-5.739-5.739-5.739H5.738C2.569 26.848 0 29.417 0 32.587v338.848c-.001 3.169 2.568 5.739 5.738 5.739zm305.055-254.982h53.682v53.684h-53.682v-53.684zm0 105.954h53.682v53.684h-53.682v-53.684zM39.547 122.192H93.23v53.684H39.547v-53.684zm0 105.954H93.23v53.684H39.547v-53.684z"/></svg>