<svg xmlns="http://www.w3.org/2000/svg" viewBox="0 0 460 460" style="enable-background:new 0 0 460 460" xml:space="preserve"><path style="fill:#000" d="M430 460h30V351.327c-8.415 15.951-18.438 30.933-30 44.817V460zM230 0C102.975 0 0 102.975 0 230s102.975 230 230 230 230-102.975 230-230S357.025 0 230 0zm0 40c30.376 0 55 24.624 55 55s-24.624 55-55 55-55-24.624-55-55 24.624-55 55-55zM46.607 188.283c0-30.376 24.624-55 55-55 30.375 0 55 24.624 55 55 0 30.375-24.625 55-55 55s-55-24.625-55-55zm104.042 205.934c-30.375 0-55-24.624-55-55s24.625-55 55-55c30.376 0 55 24.624 55 55s-24.624 55-55 55zM230 250c-11.046 0-20-8.954-20-20s8.954-20 20-20 20 8.954 20 20-8.954 20-20 20zm79.351 144.217c-30.376 0-55-24.624-55-55s24.624-55 55-55c30.375 0 55 24.624 55 55s-24.624 55-55 55zm49.042-150.934c-30.375 0-55-24.625-55-55 0-30.376 24.625-55 55-55 30.376 0 55 24.624 55 55 0 30.375-24.625 55-55 55z"/></svg>