<svg xmlns="http://www.w3.org/2000/svg" viewBox="0 0 32 32" aria-hidden="true"><path d="M19.942 6.981c.04 0 .073.032.073.07v3.996a1.998 1.998 0 0 0 2.001 1.999c.392 0 .846-.115 1.183-.343l6.803-3.851v14.263l-6.841-3.735a2 2 0 0 0-3.145 1.637l-.005 3.933a.07.07 0 0 1-.072.07H2.073a.07.07 0 0 1-.071-.07l.005-17.899a.07.07 0 0 1 .071-.07h17.865zm11.007-1.002c-.213 0-.634.063-.874.302l-8.061 4.765V7.05a2.07 2.07 0 0 0-2.072-2.07H2.077A2.07 2.07 0 0 0 .006 7.05L.002 24.948a2.07 2.07 0 0 0 2.071 2.07h17.866a2.07 2.07 0 0 0 2.072-2.07l.005-3.93 8.218 4.791c.241.24.508.209.721.209.221 0 .387-.067.407-.076.389-.162.639-.537.639-.959V7.015a1.032 1.032 0 0 0-1.05-1.037z"/></svg>