<svg xmlns="http://www.w3.org/2000/svg" viewBox="0 0 32 32" aria-hidden="true"><path d="M28.025 4.97h-7.04V2.243c0-1.266-1.032-2.265-2.298-2.265h-5.375c-1.267 0-2.297.999-2.297 2.265V4.97h-7.04a1 1 0 0 0 0 2H5.35l2.32 23.122c.097 1.082 1.019 1.931 2.098 1.931H22.23c1.079 0 2-.849 2.096-1.921l2.322-23.133h1.375a1 1 0 0 0 0-2zm-15.01-2.727c0-.163.133-.297.297-.297h5.374c.164 0 .298.133.298.297V4.97h-5.97zm9.322 27.67c-.005.055-.07.11-.105.11H9.769c-.035 0-.101-.055-.107-.12L7.361 6.97H24.64z"/></svg>