<svg xmlns="http://www.w3.org/2000/svg" viewBox="0 0 294.843 294.843" style="enable-background:new 0 0 294.843 294.843" xml:space="preserve"><path style="fill:#facc15" d="M147.421 0C66.133 0 0 66.133 0 147.421s66.133 147.421 147.421 147.421c38.287 0 74.567-14.609 102.159-41.136 2.389-2.296 2.464-6.095.167-8.483-2.295-2.388-6.093-2.464-8.483-.167-25.345 24.367-58.672 37.786-93.842 37.786C72.75 282.843 12 222.093 12 147.421S72.75 12 147.421 12s135.421 60.75 135.421 135.421c0 16.842-3.052 33.273-9.071 48.835-1.195 3.091.341 6.565 3.432 7.761 3.092 1.193 6.565-.341 7.761-3.432 6.555-16.949 9.879-34.836 9.879-53.165C294.843 66.133 228.71 0 147.421 0z"/><path style="fill:#facc15" d="M167.619 160.134c-2.37-2.319-6.168-2.277-8.485.09-2.318 2.368-2.277 6.167.09 8.485l47.236 46.236c1.168 1.143 2.683 1.712 4.197 1.712 1.557 0 3.113-.603 4.288-1.803 2.318-2.368 2.277-6.167-.09-8.485l-47.236-46.235zm-42.441-26.471c1.171 1.171 2.707 1.757 4.243 1.757s3.071-.586 4.243-1.757c2.343-2.343 2.343-6.142 0-8.485L88.428 79.942c-2.343-2.343-6.143-2.343-8.485 0-2.343 2.343-2.343 6.142 0 8.485l45.235 45.236zM214.9 79.942c-2.343-2.343-6.143-2.343-8.485 0L79.942 206.415c-2.343 2.343-2.343 6.142 0 8.485 1.171 1.171 2.707 1.757 4.243 1.757s3.071-.586 4.243-1.757L214.9 88.428c2.343-2.344 2.343-6.142 0-8.486z"/></svg>